<svg width="250" height="250" viewBox="0 0 250 250" fill="none" xmlns="http://www.w3.org/2000/svg">
<rect width="250" height="250" fill="#2C2C2C"/>
<path d="M50.5527 183H69.1562L78.0918 125.432L78.8975 120.012L79.7031 125.432L89.0049 183H107.608L122.403 76.3594H103.507L96.2559 136.125L95.7432 140.593L95.084 136.198L86.1484 76.3594H71.4268L63.0039 135.759L62.3447 140.153L61.832 135.979L54.7275 76.3594H35.9043L50.5527 183ZM189.054 155.168C189.054 157.072 188.663 158.83 187.882 160.441C187.101 162.004 185.978 163.347 184.513 164.47C183.048 165.593 181.241 166.472 179.093 167.106C176.993 167.741 174.576 168.059 171.842 168.059C168.766 168.059 165.934 167.717 163.346 167.033C160.807 166.35 158.634 165.275 156.827 163.811C154.972 162.346 153.531 160.466 152.506 158.171C151.48 155.876 150.919 153.117 150.821 149.895H130.606C130.606 155.412 131.656 160.222 133.756 164.323C135.904 168.425 138.81 171.989 142.472 175.017C146.329 178.093 150.846 180.437 156.021 182.048C161.246 183.61 166.52 184.392 171.842 184.392C177.262 184.392 182.267 183.757 186.856 182.487C191.446 181.169 195.401 179.24 198.722 176.701C202.042 174.211 204.63 171.159 206.485 167.546C208.39 163.884 209.342 159.709 209.342 155.021C209.342 149.602 208.097 144.816 205.606 140.666C203.116 136.516 199.771 132.878 195.572 129.753C192.789 127.849 189.737 126.164 186.417 124.699C183.097 123.234 179.605 121.989 175.943 120.964C172.525 120.036 169.449 119.035 166.715 117.961C164.029 116.887 161.734 115.69 159.83 114.372C157.926 113.103 156.461 111.662 155.436 110.051C154.459 108.439 153.971 106.633 153.971 104.631C153.971 102.727 154.337 100.969 155.069 99.3574C155.851 97.6973 156.974 96.2568 158.438 95.0361C159.903 93.8643 161.686 92.9609 163.785 92.3262C165.934 91.6426 168.375 91.3008 171.109 91.3008C174.088 91.3008 176.676 91.7158 178.873 92.5459C181.119 93.3271 182.999 94.4258 184.513 95.8418C185.978 97.3066 187.076 99.04 187.809 101.042C188.59 103.044 189.029 105.241 189.127 107.634H209.195C209.195 102.849 208.268 98.4541 206.412 94.4502C204.557 90.4463 201.969 86.9795 198.648 84.0498C195.328 81.1689 191.349 78.9229 186.71 77.3115C182.12 75.7002 177.042 74.8945 171.476 74.8945C166.104 74.8945 161.124 75.6025 156.534 77.0186C151.944 78.3857 147.965 80.3633 144.596 82.9512C141.227 85.5391 138.59 88.6641 136.686 92.3262C134.781 95.9883 133.829 100.065 133.829 104.558C133.829 108.464 134.537 112.077 135.953 115.397C137.418 118.718 139.566 121.745 142.398 124.479C145.23 127.214 148.868 129.729 153.312 132.023C157.804 134.318 163.004 136.271 168.912 137.883C172.721 138.908 175.895 140.031 178.434 141.252C181.021 142.424 183.121 143.718 184.732 145.134C186.295 146.599 187.394 148.161 188.028 149.821C188.712 151.481 189.054 153.264 189.054 155.168Z" fill="white"/>
</svg>
